<?xml version="1.0" standalone="no"?>
<!DOCTYPE svg PUBLIC "-//W3C//DTD SVG 20010904//EN"
 "http://www.w3.org/TR/2001/REC-SVG-20010904/DTD/svg10.dtd">
<svg version="1.0" xmlns="http://www.w3.org/2000/svg"
 width="1080.000000pt" height="1050.000000pt" viewBox="0 0 1080.000000 1050.000000"
 preserveAspectRatio="xMidYMid meet">

<g transform="translate(0.000000,1050.000000) scale(0.100000,-0.100000)"
fill="#000000" stroke="none">
<path d="M5130 10340 c-277 -8 -317 -13 -455 -56 -249 -80 -459 -241 -587
-450 -40 -66 -90 -196 -123 -319 -1 -6 -128 -68 -281 -138 l-279 -128 -40 17
c-222 92 -315 114 -485 114 -168 0 -307 -34 -465 -112 -132 -66 -206 -118
-364 -258 -89 -79 -407 -412 -489 -512 -127 -156 -210 -312 -258 -483 -26 -93
-28 -114 -29 -285 0 -175 2 -191 29 -285 16 -55 30 -111 32 -125 2 -17 -44
-119 -139 -310 l-142 -284 -57 -17 c-147 -43 -320 -157 -426 -281 -132 -155
-232 -363 -277 -579 -29 -135 -37 -324 -32 -687 5 -373 13 -453 58 -618 97
-355 356 -642 670 -743 l66 -22 48 -102 c26 -56 90 -190 141 -297 l93 -195
-19 -56 c-58 -177 -69 -374 -30 -564 64 -316 209 -534 637 -956 207 -204 324
-297 460 -366 176 -90 307 -123 493 -123 162 0 283 27 452 101 l67 29 133 -64
c121 -58 287 -131 378 -166 49 -18 48 -17 71 -105 106 -407 471 -697 949 -755
64 -8 231 -10 510 -8 462 5 507 10 693 74 357 125 587 354 679 679 12 44 26
85 30 92 5 6 46 26 91 44 45 18 150 64 232 102 245 113 214 106 300 68 260
-115 512 -130 763 -46 253 85 440 224 774 579 245 259 328 366 406 522 88 176
125 327 125 509 0 119 -24 269 -58 367 l-13 40 120 261 c66 144 125 275 133
293 16 38 22 42 108 71 133 45 266 133 373 245 155 163 247 343 306 601 20 85
22 127 25 571 4 403 2 495 -12 580 -70 447 -354 803 -726 910 -48 14 -59 22
-70 49 -7 18 -70 148 -140 289 l-128 257 19 53 c10 30 29 101 40 159 30 144
24 348 -14 494 -31 122 -113 291 -192 402 -137 190 -593 646 -763 762 -143 97
-273 153 -431 186 -102 22 -274 24 -380 6 -79 -14 -227 -64 -299 -101 l-42
-21 -117 55 c-64 30 -153 71 -197 91 -44 21 -116 54 -160 75 l-80 37 -24 93
c-98 380 -409 646 -841 721 -139 24 -429 31 -840 19z m817 -298 c323 -74 548
-282 610 -563 20 -94 20 -295 0 -406 -21 -113 -58 -234 -73 -240 -32 -12 -191
134 -219 201 -12 29 -12 43 0 102 19 90 19 217 0 281 -51 173 -215 304 -423
340 -68 12 -165 14 -486 10 -368 -3 -406 -5 -466 -24 -237 -74 -369 -227 -371
-433 0 -43 5 -118 12 -167 12 -84 11 -90 -10 -132 -38 -74 -182 -200 -214
-188 -16 6 -61 168 -78 282 -77 512 205 884 723 955 35 4 252 7 483 6 385 -3
428 -5 512 -24z m-304 -548 c3 -3 -14 -31 -37 -62 -104 -137 -140 -247 -140
-427 0 -149 21 -243 80 -360 18 -37 31 -72 28 -76 -3 -5 -81 -9 -175 -9 -187
0 -186 0 -149 63 38 64 80 198 92 290 21 170 -32 369 -134 504 -26 35 -48 68
-48 74 0 10 472 13 483 3z m-695 -210 c38 -23 87 -91 107 -149 9 -29 17 -82
17 -125 1 -318 -273 -621 -785 -865 -334 -159 -575 -225 -821 -225 -145 0
-235 18 -334 65 -177 84 -291 270 -253 413 12 43 51 82 82 82 12 0 37 -27 68
-74 73 -108 125 -146 246 -181 207 -61 575 29 960 233 177 95 288 174 401 287
148 147 204 269 204 444 0 55 4 79 17 93 20 22 56 23 91 2z m996 0 c12 -12 15
-35 14 -97 -3 -148 42 -265 149 -388 101 -116 203 -194 400 -306 358 -205 703
-310 934 -282 164 19 226 56 328 197 31 43 60 72 70 72 10 0 30 -12 44 -26
112 -112 9 -347 -200 -457 -185 -97 -457 -105 -748 -21 -291 83 -646 267 -873
451 -163 133 -279 292 -317 439 -19 74 -19 206 0 270 33 110 150 198 199 148z
m-2000 -106 c3 -13 8 -52 11 -88 l5 -65 -99 -46 -99 -47 -57 65 c-33 36 -54
68 -49 73 10 9 264 128 276 129 4 1 10 -9 12 -21z m3059 -43 c76 -36 137 -67
137 -70 0 -6 -102 -119 -111 -123 -4 -2 -48 16 -99 40 l-92 43 7 80 c6 72 11
95 19 95 2 0 64 -29 139 -65z m-3916 -55 c198 -56 361 -174 470 -341 57 -87
108 -201 100 -222 -7 -19 -83 -38 -178 -44 -123 -9 -138 -3 -179 70 -45 81
-150 185 -221 219 -201 98 -394 48 -609 -157 -135 -129 -403 -403 -467 -479
-174 -204 -210 -413 -107 -625 26 -53 129 -168 182 -204 32 -21 41 -69 42
-215 0 -137 -4 -145 -63 -121 -66 27 -170 95 -237 157 -162 147 -259 351 -276
577 -11 131 22 276 94 420 59 119 99 168 361 444 349 368 524 492 758 536 100
19 229 13 330 -15z m5016 0 c168 -44 268 -109 489 -314 260 -242 481 -491 557
-627 154 -275 142 -602 -31 -860 -61 -92 -153 -185 -241 -243 -73 -49 -180
-96 -191 -86 -15 14 -19 158 -8 239 l11 75 90 84 c77 70 97 96 131 165 65 133
72 263 21 397 -45 121 -140 237 -406 503 -216 215 -299 288 -385 335 -155 85
-344 82 -475 -8 -63 -43 -147 -139 -178 -203 -20 -41 -34 -58 -53 -63 -35 -9
-176 2 -239 18 -66 17 -68 38 -15 148 83 170 199 292 360 374 99 51 127 60
235 81 98 18 224 12 328 -15z m-4054 -361 c6 -18 11 -38 11 -46 0 -13 -112
-73 -137 -73 -10 0 -33 57 -33 83 0 8 117 65 137 66 6 1 16 -13 22 -30z m2788
4 c34 -16 63 -32 63 -38 0 -5 -5 -27 -11 -48 -9 -33 -13 -37 -32 -31 -33 10
-115 52 -121 63 -7 10 21 81 32 81 4 0 35 -12 69 -27z m1567 -571 c88 -89 155
-165 151 -171 -3 -6 -16 -11 -28 -11 -12 0 -55 -9 -95 -20 -210 -58 -365 -190
-468 -397 l-40 -82 -85 87 c-47 48 -95 99 -108 113 l-22 27 78 42 c216 115
383 322 414 514 10 65 14 74 28 66 9 -4 87 -80 175 -168z m-5805 93 c14 -79
77 -204 141 -282 69 -86 177 -174 272 -223 44 -23 78 -45 76 -50 -2 -5 -48
-56 -102 -114 -78 -83 -102 -103 -113 -95 -7 6 -13 17 -13 23 0 18 -84 150
-130 205 -105 124 -287 228 -438 249 -30 5 -48 13 -50 22 -3 20 325 347 337
334 4 -5 13 -36 20 -69z m3260 2 c31 -29 74 -66 96 -84 26 -21 37 -35 30 -41
-5 -6 -55 -18 -110 -28 -87 -16 -153 -19 -490 -19 -337 0 -403 3 -487 18 -54
11 -100 22 -102 26 -3 3 28 32 67 63 40 31 85 70 101 87 l30 31 404 0 405 0
56 -53z m546 -353 c75 -37 198 -90 273 -119 l137 -51 30 -85 c63 -175 143
-294 346 -516 264 -289 447 -437 647 -523 l84 -36 43 -110 c23 -60 79 -185
124 -279 l82 -170 -30 -110 c-51 -186 -56 -247 -56 -650 0 -425 11 -530 77
-722 11 -29 5 -44 -79 -215 -50 -100 -108 -228 -128 -284 l-37 -101 -86 -39
c-127 -56 -281 -163 -397 -276 -56 -54 -105 -98 -109 -98 -3 0 -6 687 -6 1526
0 990 -3 1532 -10 1544 -15 28 -70 41 -162 40 -46 -1 -100 -1 -120 -1 l-38 1
0 179 c0 99 -3 187 -6 196 -18 47 39 45 -1604 45 -1643 0 -1586 2 -1604 -45
-3 -9 -6 -862 -6 -1895 0 -1111 -4 -1881 -9 -1884 -5 -3 -40 27 -77 66 -185
197 -409 412 -504 483 -58 43 -150 100 -206 127 l-101 48 -33 87 c-46 123
-133 313 -180 395 l-39 69 33 117 c19 64 38 155 44 202 28 219 20 816 -12 965
-8 39 -26 106 -38 150 l-24 80 81 160 c45 88 101 211 126 274 l45 114 100 51
c201 104 294 177 529 417 273 279 374 419 444 618 15 41 33 78 41 82 8 5 89
37 180 73 91 35 208 85 260 110 52 25 101 46 108 46 7 0 35 -11 62 -25 57 -29
223 -78 330 -97 104 -18 781 -18 900 0 136 21 249 52 340 92 47 21 88 38 91
39 4 1 68 -29 144 -65z m-4002 -251 c97 -53 202 -199 241 -333 77 -268 5 -656
-191 -1030 -160 -305 -339 -504 -553 -614 -121 -63 -186 -80 -305 -80 -88 -1
-107 2 -157 26 -79 37 -124 73 -153 123 -30 50 -31 66 -6 96 l18 23 100 -17
c150 -25 228 -6 376 89 272 177 534 607 603 993 26 150 13 347 -32 461 -22 58
-78 146 -116 187 -38 39 -33 73 14 97 42 21 96 14 161 -21z m6173 6 c13 -12
24 -26 24 -30 0 -3 -21 -33 -46 -65 -56 -71 -108 -179 -129 -266 -24 -102 -20
-301 9 -428 96 -418 380 -841 661 -983 101 -50 172 -58 322 -36 80 12 86 11
99 -6 67 -91 -97 -238 -280 -252 -212 -16 -465 112 -654 332 -166 192 -356
573 -427 852 -65 261 -44 522 58 695 101 172 280 265 363 187z m-4933 4 c9 -8
-52 -120 -111 -203 -99 -140 -555 -570 -579 -546 -3 3 -5 60 -4 128 l2 123
128 130 c71 72 176 182 235 245 l107 115 102 6 c56 3 105 6 108 7 3 1 9 -1 12
-5z m3776 -51 c25 -26 132 -138 238 -249 l194 -202 4 -125 c3 -69 2 -126 -1
-126 -3 0 -43 25 -87 57 -99 68 -395 363 -485 482 -57 76 -122 187 -122 209 0
5 48 7 108 5 l107 -5 44 -46z m-5841 -632 l53 -58 -53 -102 -53 -102 -35 7
c-19 3 -54 9 -78 12 -23 3 -45 9 -47 14 -8 12 135 289 148 288 7 -1 36 -27 65
-59z m7785 -73 c37 -72 67 -139 67 -148 0 -12 -14 -18 -52 -23 -29 -3 -64 -8
-78 -12 -23 -5 -29 2 -79 100 l-55 105 50 55 c27 29 56 54 64 55 10 0 39 -47
83 -132z m-2505 -2054 l-3 -2058 -1477 -3 -1478 -2 0 2060 0 2060 1480 0 1480
0 -2 -2057z m-4905 1881 c39 -16 67 -34 67 -42 0 -12 -59 -125 -89 -171 -7
-10 -25 -2 -85 38 l-76 52 41 80 c31 63 44 80 57 76 9 -3 47 -18 85 -33z
m7025 -29 c18 -36 32 -73 31 -83 0 -16 -117 -102 -139 -102 -13 0 -103 168
-96 179 4 5 28 17 54 26 26 8 58 22 72 30 14 8 30 14 35 15 6 0 25 -29 43 -65z
m-7528 -236 c94 -26 211 -86 274 -142 l48 -42 -69 -66 c-38 -36 -90 -75 -117
-87 l-47 -23 -62 30 c-87 40 -157 55 -235 48 -181 -17 -322 -159 -379 -382
-16 -62 -18 -121 -18 -535 0 -415 2 -473 18 -543 40 -170 138 -306 264 -365
52 -24 70 -27 163 -27 93 0 113 4 173 29 l68 28 62 -30 c59 -30 158 -103 166
-124 10 -28 -143 -133 -247 -168 -181 -60 -377 -41 -557 53 -93 49 -230 192
-284 295 -106 206 -121 295 -128 749 -8 545 13 709 119 923 45 91 64 117 142
196 74 74 107 99 178 134 47 23 110 48 140 55 86 21 241 18 328 -6z m5738
-1974 c1 -1094 0 -2000 -3 -2013 l-5 -22 -1398 2 -1397 3 -3 92 -3 93 1285 2
c1247 3 1285 4 1305 22 l21 19 0 1892 c0 1040 3 1895 7 1899 4 4 48 5 98 4
l90 -3 3 -1990z m2487 1981 c289 -79 477 -296 551 -636 17 -76 19 -133 19
-565 0 -527 -3 -555 -64 -725 -72 -196 -211 -359 -378 -443 -179 -91 -420 -89
-604 3 -77 39 -169 106 -168 123 0 16 109 106 161 134 53 28 74 28 125 3 168
-81 389 -32 506 112 45 56 90 146 112 228 16 57 19 119 23 480 5 515 -4 609
-73 754 -41 86 -114 159 -203 203 -72 36 -81 38 -171 38 -86 -1 -104 -4 -173
-34 -92 -39 -109 -37 -195 19 -74 49 -121 105 -106 129 5 9 42 39 82 68 70 51
137 81 236 108 66 18 256 19 320 1z m-7236 -807 c28 -172 17 -859 -15 -911 -3
-4 -45 33 -94 83 l-90 90 0 323 0 324 80 83 c44 45 80 87 80 92 0 5 6 7 13 5
7 -3 18 -41 26 -89z m6121 -415 l0 -319 -90 -90 c-49 -49 -92 -87 -94 -84 -28
27 -46 599 -27 817 18 202 13 198 120 88 l91 -92 0 -320z m-7351 169 c30 -20
89 -50 130 -67 74 -30 81 -31 236 -30 159 0 161 0 267 37 59 20 112 37 117 37
7 0 11 -50 11 -145 0 -81 -4 -145 -9 -145 -5 0 -58 17 -118 37 -95 32 -122 37
-227 41 -181 6 -299 -25 -433 -116 -34 -23 -67 -42 -72 -42 -12 0 -16 442 -4
453 3 4 16 0 27 -8 12 -8 45 -31 75 -52z m8491 -168 c0 -147 -4 -235 -10 -235
-5 0 -33 18 -62 40 -121 92 -244 130 -416 130 -114 0 -251 -29 -331 -69 -21
-11 -41 -17 -45 -14 -10 10 -7 293 3 293 5 0 39 -11 76 -25 151 -57 355 -74
479 -41 75 21 172 69 233 117 26 21 54 38 61 38 9 1 12 -52 12 -234z m-8029
-330 c191 -33 379 -145 526 -313 180 -207 365 -566 432 -837 46 -191 56 -384
27 -529 -34 -169 -146 -334 -268 -395 -34 -17 -76 -31 -94 -31 -35 0 -94 41
-94 66 0 8 21 40 47 72 199 244 191 618 -23 1061 -149 310 -341 527 -550 623
-85 38 -175 46 -284 25 -66 -14 -78 -14 -98 -1 -32 21 -37 39 -23 84 22 76
131 159 233 179 63 13 77 12 169 -4z m7644 1 c69 -18 104 -38 146 -83 53 -56
69 -84 69 -119 0 -48 -29 -68 -87 -60 -137 19 -190 19 -260 -2 -227 -70 -437
-289 -608 -637 -133 -269 -186 -494 -165 -696 17 -165 55 -263 147 -375 35
-43 43 -61 39 -80 -8 -29 -53 -54 -99 -54 -56 0 -150 54 -211 121 -109 120
-154 248 -163 454 -11 271 64 538 248 884 168 314 390 529 636 613 138 48 222
57 308 34z m-7337 -1022 c24 -48 40 -89 37 -92 -6 -6 -147 -62 -157 -62 -9 0
-84 148 -77 154 16 15 134 86 143 86 6 0 31 -39 54 -86z m6969 45 c35 -22 65
-44 68 -49 6 -10 -73 -160 -84 -160 -4 0 -11 4 -16 8 -6 5 -37 19 -70 32 -33
13 -64 26 -68 30 -11 10 81 180 96 180 7 0 40 -18 74 -41z m-7372 -251 c30
-56 54 -105 53 -109 -6 -14 -107 -119 -115 -119 -11 0 -156 290 -149 298 3 2
36 10 73 17 37 7 71 13 75 14 4 0 32 -45 63 -101z m7791 86 c30 -4 57 -10 59
-15 3 -4 -26 -73 -65 -154 l-70 -147 -60 54 c-33 29 -60 59 -60 66 0 12 61
132 97 190 9 15 20 21 30 18 8 -3 39 -9 69 -12z m-6352 -221 c99 -72 161 -130
340 -319 138 -145 194 -212 234 -279 58 -98 66 -131 30 -121 -13 3 -56 6 -97
6 l-73 0 -247 251 -246 252 -6 116 c-5 113 -4 131 8 131 3 0 28 -17 57 -37z
m4841 -83 l-1 -121 -180 -182 c-99 -100 -210 -215 -246 -255 -95 -105 -102
-101 -106 61 l-3 127 146 154 c80 85 171 176 203 204 58 51 170 132 181 132 4
0 6 -54 6 -120z m-5737 -20 c2 -52 -2 -125 -8 -161 -11 -65 -13 -68 -69 -111
-141 -110 -206 -241 -205 -408 2 -145 50 -257 177 -415 99 -123 490 -503 575
-559 119 -79 157 -90 302 -91 121 0 127 1 191 32 79 39 177 131 220 208 17 31
41 60 52 67 22 11 240 6 285 -8 32 -9 28 -31 -28 -141 -147 -287 -388 -447
-695 -460 -139 -6 -220 8 -339 57 -149 62 -213 114 -502 403 -149 150 -293
303 -321 341 -113 153 -180 304 -204 456 -14 89 -6 239 16 325 40 154 155 327
288 432 73 57 220 135 247 130 12 -2 16 -22 18 -97z m6671 59 c130 -60 260
-176 349 -312 156 -241 160 -567 10 -832 -89 -156 -150 -227 -493 -566 -208
-206 -236 -229 -341 -295 -354 -221 -835 -106 -1076 257 -53 80 -112 204 -105
222 3 8 28 20 57 26 54 12 210 15 247 5 13 -4 35 -28 53 -61 70 -124 191 -220
310 -247 179 -41 328 7 506 163 148 129 475 470 533 554 145 213 169 394 74
580 -29 59 -89 125 -163 182 -51 39 -56 47 -68 102 -13 63 -17 245 -5 256 9 9
34 1 112 -34z m-841 -538 c35 -90 96 -178 181 -261 110 -107 238 -170 394
-195 20 -3 37 -9 37 -13 0 -12 -334 -342 -346 -342 -6 0 -14 26 -17 60 -12
112 -82 248 -187 363 -66 72 -147 129 -252 179 -38 17 -68 34 -68 37 1 11 215
231 225 231 6 0 20 -27 33 -59z m-4956 -58 c60 -59 108 -110 108 -114 0 -3
-37 -25 -82 -48 -172 -87 -289 -199 -368 -355 -28 -55 -46 -106 -53 -154 -6
-40 -15 -72 -19 -72 -14 0 -328 312 -328 326 0 7 16 16 38 19 144 24 291 105
399 218 69 73 153 196 174 255 6 18 14 32 17 32 4 0 55 -48 114 -107z m706
-348 c176 -34 533 -161 572 -205 32 -36 61 -50 101 -50 54 0 281 -151 426
-284 123 -113 237 -292 262 -414 34 -162 -15 -331 -113 -391 -40 -25 -63 -26
-88 -4 -14 13 -18 31 -18 94 0 202 -79 351 -272 511 -201 168 -580 358 -865
436 -86 23 -117 26 -258 27 l-160 0 -69 -33 c-89 -42 -144 -87 -189 -155 -51
-76 -59 -82 -96 -62 -47 24 -64 67 -58 142 16 204 220 373 487 404 86 10 238
3 338 -16z m3776 10 c260 -45 436 -210 436 -407 0 -64 -18 -111 -49 -128 -40
-21 -59 -11 -100 48 -97 143 -217 202 -412 202 -165 0 -336 -43 -567 -141
-565 -241 -857 -540 -826 -845 6 -54 4 -64 -15 -83 -29 -29 -60 -26 -109 10
-28 21 -52 51 -74 97 -31 62 -33 74 -33 167 0 161 46 276 174 429 85 103 254
240 413 337 l81 49 428 0 c292 0 436 4 452 11 37 17 47 50 47 158 0 54 3 101
7 104 10 11 53 8 147 -8z m-1565 -272 c0 -5 -27 -32 -60 -60 l-59 -53 -394 0
-395 0 -58 51 c-32 28 -59 55 -61 60 -2 5 199 9 512 9 284 0 516 -3 515 -7z
m-356 -379 c3 -4 -4 -27 -17 -53 -131 -261 -107 -570 60 -790 36 -47 53 -76
46 -83 -11 -11 -486 -7 -497 4 -4 4 10 27 31 51 191 219 223 520 85 802 -16
32 -27 63 -25 67 6 9 308 11 317 2z m1342 -81 c6 -32 5 -33 -56 -63 -34 -16
-67 -30 -73 -30 -6 0 -19 18 -28 40 -19 46 -21 43 67 81 67 30 78 26 90 -28z
m-2900 20 c36 -15 65 -30 65 -34 0 -16 -31 -79 -39 -79 -12 0 -114 42 -125 51
-13 11 4 89 20 89 7 0 43 -12 79 -27z m374 -217 c64 -47 144 -134 161 -175 12
-29 11 -42 -3 -96 -36 -135 -12 -299 58 -401 71 -102 209 -189 350 -219 103
-22 823 -22 933 0 312 62 483 332 396 624 -22 75 -8 108 85 201 88 87 127 112
141 90 18 -28 60 -165 75 -243 19 -102 19 -293 0 -376 -35 -149 -152 -331
-272 -426 -107 -84 -212 -130 -383 -167 -83 -18 -140 -21 -446 -25 -504 -7
-641 10 -834 104 -81 39 -108 59 -191 142 -82 82 -103 110 -142 191 -64 128
-87 226 -87 359 0 143 27 287 79 424 14 35 24 34 80 -7z m-542 -111 c40 -19
84 -37 99 -41 25 -6 25 -7 18 -88 -3 -44 -10 -85 -15 -90 -5 -6 -36 2 -76 19
-61 26 -203 93 -211 100 -4 4 101 134 107 135 2 0 37 -16 78 -35z m3268 -31
c31 -36 54 -69 49 -74 -21 -19 -267 -121 -273 -114 -13 14 -34 158 -25 161 5
2 47 23 94 48 47 24 88 44 91 45 3 0 32 -30 64 -66z"/>
<path d="M4559 6707 c-41 -28 -79 -82 -79 -114 0 -28 -13 -34 -130 -64 -47
-12 -97 -28 -111 -35 -32 -16 -62 -68 -131 -222 -43 -98 -49 -119 -44 -155 24
-147 202 -210 310 -109 33 31 66 96 66 132 0 14 -25 79 -54 145 -44 98 -52
122 -41 131 8 6 47 19 88 29 l74 18 42 -33 41 -33 0 -214 0 -213 -51 0 c-66 0
-89 -13 -89 -50 0 -56 13 -60 210 -60 l180 0 17 26 c15 24 15 29 2 53 -13 23
-22 27 -84 31 l-70 5 -3 210 -2 211 45 32 c50 35 37 35 164 2 52 -14 52 -14
-13 -155 -25 -55 -46 -113 -46 -130 1 -65 61 -151 123 -174 77 -30 172 4 218
77 46 73 41 110 -38 280 -77 165 -83 171 -202 197 -118 26 -137 37 -145 79 -8
41 -46 90 -87 111 -44 23 -120 19 -160 -8z m129 -93 c27 -18 30 -69 5 -96 -20
-22 -70 -23 -95 -1 -39 35 -8 113 45 113 12 0 33 -7 45 -16z m-404 -345 c14
-33 26 -62 26 -65 0 -2 -25 -4 -55 -4 -40 0 -55 4 -55 14 0 20 41 116 50 116
4 0 19 -27 34 -61z m782 6 c13 -31 24 -60 24 -65 0 -6 -25 -10 -55 -10 -30 0
-55 4 -55 10 0 11 52 120 58 120 2 0 14 -25 28 -55z m-761 -184 c7 -12 -26
-31 -55 -31 -29 0 -62 19 -55 31 4 5 28 9 55 9 27 0 51 -4 55 -9z m789 0 c3
-5 -8 -14 -25 -21 -34 -14 -79 -5 -87 18 -4 14 103 18 112 3z"/>
<path d="M5492 6524 c-25 -18 -29 -60 -8 -90 14 -18 32 -19 415 -22 l401 -3
26 26 c20 20 24 32 19 53 -12 52 -9 52 -435 52 -342 0 -399 -2 -418 -16z"/>
<path d="M5486 6189 c-15 -12 -26 -30 -26 -44 0 -14 11 -32 26 -44 26 -21 36
-21 568 -21 604 0 586 -2 586 65 0 67 18 65 -586 65 -532 0 -542 0 -568 -21z"/>
<path d="M4198 5563 c-8 -10 -18 -23 -22 -30 -10 -18 15 -63 38 -69 12 -2 194
-3 406 -2 l384 3 16 28 c13 24 13 30 0 55 l-16 27 -395 3 c-367 2 -397 1 -411
-15z"/>
<path d="M4483 5280 c-30 -12 -40 -56 -22 -89 l15 -26 1004 -3 c923 -2 1005
-1 1022 15 24 21 23 68 -2 93 -20 20 -33 20 -1007 19 -555 0 -998 -4 -1010 -9z"/>
<path d="M4200 4900 c-11 -11 -20 -31 -20 -45 0 -14 9 -34 20 -45 20 -20 33
-20 1150 -20 1117 0 1130 0 1150 20 11 11 20 31 20 45 0 14 -9 34 -20 45 -20
20 -33 20 -1150 20 -1117 0 -1130 0 -1150 -20z"/>
<path d="M4200 4480 c-27 -27 -25 -62 3 -88 l24 -22 1132 2 c1108 3 1133 3
1147 22 19 27 18 70 -4 89 -17 16 -111 17 -1150 17 -1119 0 -1132 0 -1152 -20z"/>
<path d="M5173 4110 c-43 -18 -55 -68 -23 -100 20 -20 33 -20 675 -20 642 0
655 0 675 20 23 23 26 58 6 86 -14 18 -34 19 -663 21 -361 1 -658 -2 -670 -7z"/>
<path d="M4525 4089 c-138 -20 -287 -130 -357 -265 -89 -169 -90 -338 -3 -503
70 -132 167 -215 302 -258 172 -54 345 -14 483 113 116 108 174 242 173 399
-2 320 -282 560 -598 514z m247 -167 c115 -56 197 -168 218 -296 27 -164 -72
-345 -228 -419 -59 -28 -77 -32 -153 -31 -77 0 -94 4 -152 32 -156 77 -250
258 -219 423 28 150 106 249 241 306 47 20 69 23 142 20 73 -3 97 -8 151 -35z"/>
<path d="M4660 3625 c-64 -63 -121 -115 -127 -115 -6 0 -33 18 -59 40 -27 22
-59 40 -71 40 -29 0 -63 -33 -63 -62 0 -22 61 -86 134 -139 71 -52 82 -47 243
114 91 91 143 151 143 164 0 29 -38 73 -62 73 -13 0 -64 -42 -138 -115z"/>
<path d="M5779 3671 c-49 -19 -211 -104 -342 -178 -103 -59 -129 -99 -91 -137
25 -25 64 -19 129 20 87 53 325 174 341 174 20 0 18 -13 -16 -90 -35 -80 -35
-82 -12 -103 30 -27 65 -21 103 19 36 37 210 174 222 174 4 0 7 -30 7 -66 0
-59 3 -68 29 -95 51 -50 111 -40 401 65 74 28 95 59 70 107 -16 29 -61 24
-210 -26 -156 -52 -175 -55 -166 -22 4 12 9 45 13 74 5 46 3 54 -20 77 -47 47
-129 32 -229 -39 -49 -35 -68 -38 -68 -9 0 9 -13 29 -29 45 -34 34 -65 36
-132 10z"/>
<path d="M6365 3279 c-38 -11 -173 -31 -300 -44 -523 -57 -546 -61 -560 -104
-17 -56 25 -86 102 -72 27 5 100 14 163 21 441 44 628 71 704 100 37 14 59 52
47 82 -16 44 -47 47 -156 17z"/>
</g>
</svg>
